<svg xmlns="http://www.w3.org/2000/svg" viewBox="0 0 512 512" role="img" aria-label="TCL AC">
  <defs>
    <linearGradient id="bg" x1="92" y1="36" x2="428" y2="492" gradientUnits="userSpaceOnUse">
      <stop offset="0" stop-color="#17243a" />
      <stop offset="0.52" stop-color="#070c16" />
      <stop offset="1" stop-color="#02040a" />
    </linearGradient>
    <radialGradient id="halo" cx="256" cy="155" r="310" gradientUnits="userSpaceOnUse">
      <stop offset="0" stop-color="#55d8ff" stop-opacity="0.58" />
      <stop offset="0.36" stop-color="#2563eb" stop-opacity="0.22" />
      <stop offset="1" stop-color="#2563eb" stop-opacity="0" />
    </radialGradient>
    <linearGradient id="unit" x1="132" y1="120" x2="380" y2="232" gradientUnits="userSpaceOnUse">
      <stop offset="0" stop-color="#f7fbff" />
      <stop offset="0.52" stop-color="#dbeafe" />
      <stop offset="1" stop-color="#91b6e8" />
    </linearGradient>
    <linearGradient id="ice" x1="165" y1="205" x2="352" y2="396" gradientUnits="userSpaceOnUse">
      <stop offset="0" stop-color="#ecfeff" />
      <stop offset="0.42" stop-color="#67e8f9" />
      <stop offset="1" stop-color="#2563eb" />
    </linearGradient>
    <filter id="softShadow" x="-20%" y="-20%" width="140%" height="150%">
      <feDropShadow dx="0" dy="26" stdDeviation="22" flood-color="#000814" flood-opacity="0.42" />
    </filter>
  </defs>
  <rect width="512" height="512" rx="112" fill="url(#bg)" />
  <rect width="512" height="512" rx="112" fill="url(#halo)" />
  <path d="M53 143C77 75 125 39 192 28h128c67 11 115 47 139 115" fill="none" stroke="#ffffff" stroke-opacity="0.08" stroke-width="2" />
  <g filter="url(#softShadow)">
    <rect x="106" y="119" width="300" height="126" rx="40" fill="url(#unit)" />
    <rect x="127" y="143" width="258" height="45" rx="22.5" fill="#0b1220" fill-opacity="0.18" />
    <path d="M151 207h210" fill="none" stroke="#0f2341" stroke-opacity="0.58" stroke-width="14" stroke-linecap="round" />
    <path d="M168 176h116" fill="none" stroke="#ffffff" stroke-opacity="0.78" stroke-width="9" stroke-linecap="round" />
    <circle cx="341" cy="165" r="13" fill="#22d3ee" />
  </g>
  <g fill="none" stroke="url(#ice)" stroke-width="19" stroke-linecap="round">
    <path d="M184 285c31 16 74 17 106 0 21-11 45-11 68 0" />
    <path d="M160 333c54 30 137 30 192 0" stroke-opacity="0.84" />
    <path d="M211 381c28 12 62 12 90 0" stroke-opacity="0.68" />
  </g>
  <g fill="none" stroke="#dff9ff" stroke-width="12" stroke-linecap="round">
    <path d="M256 267v117" />
    <path d="M206 296l100 58" />
    <path d="M306 296l-100 58" />
  </g>
  <circle cx="256" cy="337" r="20" fill="#f8fdff" />
  <rect x="10" y="10" width="492" height="492" rx="104" fill="none" stroke="#dff9ff" stroke-opacity="0.09" stroke-width="2" />
</svg>
